<svg width="1280" height="640" viewBox="0 0 1280 640" fill="none" xmlns="http://www.w3.org/2000/svg">
<rect width="1280" height="640" rx="23" fill="#413535"/>
<path d="M141 414.92C142.6 414.92 144.12 414.6 145.56 413.96C147 413.32 148.04 412.28 148.68 410.84C149.32 409.4 149.64 407.88 149.64 406.28C149.64 404.84 149.32 403.4 148.68 401.96C148.04 400.52 147 399.48 145.56 398.84C144.12 398.2 142.6 397.88 141 397.88C139.56 397.88 138.12 398.2 136.68 398.84C135.24 399.48 134.2 400.52 133.56 401.96C132.92 403.4 132.6 404.84 132.6 406.28C132.6 407.88 132.92 409.4 133.56 410.84C134.2 412.28 135.24 413.32 136.68 413.96C138.12 414.6 139.56 414.92 141 414.92ZM699 413H783V408.68H745.08V285.8H702.36V290.12H740.28V408.68H699V413ZM741 254.84C742.12 254.84 743.16 254.6 744.12 254.12C745.24 253.64 746.04 252.92 746.52 251.96C747 250.84 747.24 249.72 747.24 248.6C747.24 247.48 747 246.36 746.52 245.24C746.04 244.12 745.24 243.32 744.12 242.84C743.16 242.36 742.12 242.12 741 242.12C739.88 242.12 738.76 242.36 737.64 242.84C736.52 243.32 735.72 244.12 735.24 245.24C734.76 246.36 734.52 247.48 734.52 248.6C734.52 249.72 734.76 250.84 735.24 251.96C735.72 252.92 736.52 253.64 737.64 254.12C738.76 254.6 739.88 254.84 741 254.84Z" fill="#A596FF"/>
<path d="M260.04 414.92C265.8 414.92 271.4 413.96 276.84 412.04C282.28 410.12 286.84 406.92 290.52 402.44C294.2 397.96 297 393.08 298.92 387.8V413H303.72V236.6H298.92V311C297 305.56 294.2 300.68 290.52 296.36C286.84 291.88 282.28 288.68 276.84 286.76C271.4 284.84 265.8 283.88 260.04 283.88C253.8 283.88 247.64 285.08 241.56 287.48C235.64 289.72 230.68 293.4 226.68 298.52C222.84 303.48 220.12 309.08 218.52 315.32C217.08 321.4 216.36 327.56 216.36 333.8V365C216.36 371.24 217.08 377.48 218.52 383.72C220.12 389.8 222.84 395.4 226.68 400.52C230.68 405.48 235.64 409.16 241.56 411.56C247.64 413.8 253.8 414.92 260.04 414.92ZM260.76 410.6C255.16 410.6 249.64 409.56 244.2 407.48C238.76 405.24 234.2 401.88 230.52 397.4C227 392.76 224.52 387.64 223.08 382.04C221.8 376.44 221.16 370.76 221.16 365V333.8C221.16 328.04 221.8 322.36 223.08 316.76C224.52 311.16 227 306.04 230.52 301.4C234.2 296.76 238.76 293.4 244.2 291.32C249.64 289.24 255.16 288.2 260.76 288.2C266.36 288.2 271.8 289.32 277.08 291.56C282.52 293.64 286.92 297.08 290.28 301.88C293.64 306.52 295.88 311.64 297 317.24C298.28 322.68 298.92 328.2 298.92 333.8V365C298.92 370.6 298.28 376.2 297 381.8C295.88 387.24 293.64 392.36 290.28 397.16C286.92 401.8 282.52 405.24 277.08 407.48C271.8 409.56 266.36 410.6 260.76 410.6Z" fill="#96D9FF"/>
<path d="M381 414.92C386.12 414.92 391.16 414.28 396.12 413C401.08 411.56 405.56 409.24 409.56 406.04C413.56 402.68 416.76 398.76 419.16 394.28C421.72 389.8 423.4 385.08 424.2 380.12C425.16 375.16 425.64 370.12 425.64 365V333.8C425.64 328.68 425.16 323.64 424.2 318.68C423.4 313.72 421.72 309 419.16 304.52C416.76 299.88 413.56 295.96 409.56 292.76C405.56 289.56 401.08 287.32 396.12 286.04C391.16 284.6 386.12 283.88 381 283.88C375.88 283.88 370.84 284.6 365.88 286.04C360.92 287.32 356.44 289.56 352.44 292.76C348.6 295.96 345.4 299.88 342.84 304.52C340.44 309 338.76 313.72 337.8 318.68C336.84 323.64 336.36 328.68 336.36 333.8V365C336.36 370.12 336.84 375.16 337.8 380.12C338.76 385.08 340.44 389.8 342.84 394.28C345.4 398.76 348.6 402.68 352.44 406.04C356.44 409.24 360.92 411.56 365.88 413C370.84 414.28 375.88 414.92 381 414.92ZM381 410.6C375.24 410.6 369.64 409.56 364.2 407.48C358.76 405.4 354.2 402.04 350.52 397.4C347 392.76 344.52 387.64 343.08 382.04C341.8 376.44 341.16 370.76 341.16 365V333.8C341.16 328.04 341.8 322.36 343.08 316.76C344.52 311.16 347 306.04 350.52 301.4C354.2 296.76 358.76 293.4 364.2 291.32C369.64 289.24 375.24 288.2 381 288.2C386.76 288.2 392.36 289.24 397.8 291.32C403.24 293.4 407.72 296.76 411.24 301.4C414.92 306.04 417.4 311.16 418.68 316.76C420.12 322.36 420.84 328.04 420.84 333.8V365C420.84 370.76 420.12 376.44 418.68 382.04C417.4 387.64 414.92 392.76 411.24 397.4C407.72 402.04 403.24 405.4 397.8 407.48C392.36 409.56 386.76 410.6 381 410.6Z" fill="#FF9696"/>
<path d="M521.64 414.92C526.44 414.92 531.16 414.12 535.8 412.52C540.6 410.92 544.6 408.2 547.8 404.36C551 400.52 553.24 396.28 554.52 391.64C555.96 387 556.68 382.2 556.68 377.24C556.68 376.6 556.68 375.96 556.68 375.32H551.88C551.88 375.8 551.88 376.36 551.88 377C551.88 381.32 551.24 385.56 549.96 389.72C548.84 393.88 546.92 397.64 544.2 401C541.64 404.36 538.28 406.84 534.12 408.44C530.12 409.88 525.96 410.6 521.64 410.6C517 410.6 512.52 409.56 508.2 407.48C503.88 405.4 500.44 402.36 497.88 398.36C495.32 394.2 493.56 389.8 492.6 385.16C491.8 380.52 491.4 375.88 491.4 371.24V290.12H537.96V285.8H491.4V236.6H486.6V285.8H453.96V290.12H486.6V371.24C486.6 376.52 487.08 381.8 488.04 387.08C489.16 392.2 491.24 397.08 494.28 401.72C497.32 406.2 501.32 409.56 506.28 411.8C511.24 413.88 516.36 414.92 521.64 414.92ZM1100.76 414.92C1105.88 414.92 1110.92 414.44 1115.88 413.48C1121 412.68 1125.8 411 1130.28 408.44C1134.92 405.88 1138.6 402.36 1141.32 397.88C1144.2 393.24 1145.64 388.36 1145.64 383.24C1145.64 378.44 1144.36 373.88 1141.8 369.56C1139.4 365.24 1136.12 361.72 1131.96 359C1127.96 356.28 1123.64 354.12 1119 352.52C1114.52 350.92 1109.96 349.48 1105.32 348.2C1100.68 346.76 1095.96 345.4 1091.16 344.12C1086.52 342.68 1082.04 340.84 1077.72 338.6C1073.56 336.2 1070.04 332.92 1067.16 328.76C1064.28 324.6 1062.84 320.12 1062.84 315.32C1062.84 311 1063.96 306.92 1066.2 303.08C1068.6 299.08 1071.72 296.04 1075.56 293.96C1079.4 291.72 1083.48 290.2 1087.8 289.4C1092.12 288.6 1096.52 288.2 1101 288.2C1105.16 288.2 1109.32 288.52 1113.48 289.16C1117.8 289.8 1121.88 291.08 1125.72 293C1129.56 294.92 1132.68 297.72 1135.08 301.4C1137.64 304.92 1138.92 308.84 1138.92 313.16V313.4H1143.72V312.92C1143.72 308.12 1142.36 303.64 1139.64 299.48C1136.92 295.32 1133.4 292.12 1129.08 289.88C1124.76 287.48 1120.2 285.88 1115.4 285.08C1110.6 284.28 1105.8 283.88 1101 283.88C1096.04 283.88 1091.08 284.36 1086.12 285.32C1081.16 286.28 1076.52 288.04 1072.2 290.6C1067.88 293.16 1064.44 296.68 1061.88 301.16C1059.32 305.64 1058.04 310.36 1058.04 315.32C1058.04 320.12 1059.24 324.76 1061.64 329.24C1064.2 333.56 1067.48 337.08 1071.48 339.8C1075.64 342.52 1079.96 344.68 1084.44 346.28C1089.08 347.88 1093.72 349.4 1098.36 350.84C1103 352.12 1107.64 353.48 1112.28 354.92C1116.92 356.2 1121.4 357.96 1125.72 360.2C1130.04 362.44 1133.64 365.64 1136.52 369.8C1139.4 373.96 1140.84 378.44 1140.84 383.24C1140.84 387.88 1139.56 392.2 1137 396.2C1134.44 400.04 1131.08 403 1126.92 405.08C1122.92 407.16 1118.68 408.6 1114.2 409.4C1109.72 410.2 1105.24 410.6 1100.76 410.6C1096.44 410.6 1092.04 410.28 1087.56 409.64C1083.24 409 1079.08 407.8 1075.08 406.04C1071.08 404.12 1067.64 401.32 1064.76 397.64C1062.04 393.96 1060.68 389.88 1060.68 385.4V385.16H1055.88V385.64C1055.88 390.6 1057.32 395.24 1060.2 399.56C1063.24 403.72 1067 406.92 1071.48 409.16C1076.12 411.4 1080.92 412.92 1085.88 413.72C1090.84 414.52 1095.8 414.92 1100.76 414.92Z" fill="#A5FF96"/>
<path d="M607.08 413H611.88V300.44H659.4V296.12H611.88V270.2C611.88 266.04 612.2 261.96 612.84 257.96C613.64 253.8 615.08 249.96 617.16 246.44C619.24 242.76 622.12 239.96 625.8 238.04C629.48 236.12 633.4 235.16 637.56 235.16C642.04 235.16 646.36 236.2 650.52 238.28C654.84 240.2 657.96 243.32 659.88 247.64C661.96 251.8 663 256.12 663 260.6C663 261.08 663 261.56 663 262.04H667.8C667.8 261.4 667.8 260.84 667.8 260.36C667.8 256.36 667.16 252.44 665.88 248.6C664.6 244.76 662.52 241.4 659.64 238.52C656.76 235.64 653.32 233.64 649.32 232.52C645.48 231.4 641.56 230.84 637.56 230.84C632.92 230.84 628.36 231.88 623.88 233.96C619.56 235.88 616.12 238.92 613.56 243.08C611 247.08 609.24 251.4 608.28 256.04C607.48 260.68 607.08 265.4 607.08 270.2V296.12H578.28V300.44H607.08V413Z" fill="#EAFF96"/>
<path d="M819 413H903V408.68H865.08V236.6H822.36V240.92H860.28V408.68H819V413ZM981.24 414.92C986.36 414.92 991.48 414.36 996.6 413.24C1001.72 412.12 1006.44 410.04 1010.76 407C1015.24 403.96 1018.68 400.12 1021.08 395.48C1023.64 390.68 1025 385.72 1025.16 380.6H1020.36C1020.2 385.24 1019 389.64 1016.76 393.8C1014.52 397.96 1011.4 401.32 1007.4 403.88C1003.56 406.44 999.4 408.2 994.92 409.16C990.44 410.12 985.88 410.6 981.24 410.6C975.48 410.6 969.88 409.56 964.44 407.48C959 405.4 954.44 402.04 950.76 397.4C947.08 392.76 944.52 387.64 943.08 382.04C941.8 376.44 941.16 370.76 941.16 365V351.56H1025.64V333.8C1025.64 328.68 1025.16 323.64 1024.2 318.68C1023.4 313.72 1021.72 309 1019.16 304.52C1016.76 299.88 1013.56 295.96 1009.56 292.76C1005.56 289.56 1001.08 287.32 996.12 286.04C991.16 284.6 986.12 283.88 981 283.88C975.88 283.88 970.84 284.6 965.88 286.04C960.92 287.32 956.44 289.56 952.44 292.76C948.6 295.96 945.4 299.88 942.84 304.52C940.44 309 938.76 313.72 937.8 318.68C936.84 323.64 936.36 328.68 936.36 333.8V365C936.36 371.4 937.16 377.72 938.76 383.96C940.36 390.04 943.16 395.64 947.16 400.76C951.32 405.72 956.44 409.32 962.52 411.56C968.6 413.8 974.84 414.92 981.24 414.92ZM1020.84 347.24H941.16V333.8C941.16 328.04 941.8 322.36 943.08 316.76C944.52 311.16 947 306.04 950.52 301.4C954.2 296.76 958.76 293.4 964.2 291.32C969.64 289.24 975.24 288.2 981 288.2C986.76 288.2 992.36 289.24 997.8 291.32C1003.24 293.4 1007.72 296.76 1011.24 301.4C1014.92 306.04 1017.4 311.16 1018.68 316.76C1020.12 322.36 1020.84 328.04 1020.84 333.8V347.24Z" fill="#FF96DB"/>
</svg>
