<svg width="1280" height="640" viewBox="0 0 1280 640" fill="none" xmlns="http://www.w3.org/2000/svg">
<g clip-path="url(#clip0)">
<rect width="1280" height="640" rx="23" fill="#413535"/>
<path d="M325.163 463.943V480.328H308.779V463.943H325.163ZM325.163 414.462V21.2307H308.779V414.462H325.163ZM697.836 398.405H714.549V480.328H697.836V398.405ZM714.221 365.635V382.02H698.164V365.635H714.221ZM714.221 316.154V21.2307H697.836V316.154H714.221Z" fill="#A596FF"/>
<path d="M424.833 365.308H408.448V480H424.833V365.308ZM375.679 398.077V414.462H408.448V398.077H375.679ZM375.679 463.615V480H408.448V463.615H375.679ZM375.024 398.077H358.967V480H375.024V398.077ZM375.679 316.154V21.2307H359.294V316.154H375.679ZM424.833 316.154V21.2307H392.064V316.154H424.833ZM748.025 463.615H764.409V365.308H748.025V463.615ZM797.178 480.328V463.943H748.025V480.328H797.178ZM797.178 316.154V21.2307H748.025V316.154H797.178Z" fill="#96D9FF"/>
<path d="M457.829 398.077H474.213V480H457.829V398.077ZM506.983 398.077V414.462H474.213V398.077H506.983ZM506.983 463.615V480H474.213V463.615H506.983ZM507.638 398.077H523.695V480H507.638V398.077ZM474.213 316.154V21.2307H457.829V316.154H474.213ZM506.983 316.154V21.2307H490.598V316.154H506.983ZM815.269 398.077V413.806H864.423V398.077H815.269ZM831.654 414.462H815.269V480H831.654V414.462ZM831.654 463.615V480H880.808V463.615H831.654ZM880.808 398.077H864.751V447.231H880.808V398.077ZM831.654 430.846V447.231H864.423V430.846H831.654ZM848.038 316.154V21.2307H815.269V316.154H848.038ZM880.808 316.154V21.2307H864.423V316.154H880.808Z" fill="#FF9696"/>
<path d="M548.37 463.615H564.755V365.308H548.37V463.615ZM581.14 414.462V398.077H564.755V414.462H581.14ZM597.524 480.328V463.943H548.37V480.328H597.524ZM597.524 316.154V21.2307H548.37V316.154H597.524ZM923.028 398.077V414.462H972.181V398.077H923.028ZM906.643 463.615V480H972.181V463.615H906.643ZM972.181 430.846H923.028V447.231H972.181V430.846ZM972.181 447.558H955.797V463.943H972.181V447.558ZM923.028 398.077H906.643V447.231H923.028V398.077ZM939.412 316.154V21.2307H906.643V316.154H939.412ZM972.181 316.154V21.2307H955.797V316.154H972.181Z" fill="#A5FF96"/>
<path d="M623.103 365.308H639.816V480.328H623.103V365.308ZM655.873 398.077V414.462H639.488V398.077H655.873ZM672.257 365.308V381.692H639.488V365.308H672.257ZM639.488 316.154V21.2307H623.103V316.154H639.488ZM672.257 316.154V21.2307H655.873V316.154H672.257Z" fill="#EAFF96"/>
<rect x="266" width="772" height="112" fill="#413535"/>
<rect x="331" y="358" width="707" height="282" fill="#413535"/>
<rect x="331" y="528" width="707" height="112" fill="#413535"/>
<rect x="290" y="441" width="41" height="43" fill="#413535"/>
<path d="M331.747 515.358C331.747 519.67 330.375 523.198 327.631 525.942C324.887 528.588 321.31 529.911 316.9 529.911C312.392 529.911 308.766 528.588 306.022 525.942C303.278 523.198 301.906 519.67 301.906 515.358C301.906 510.948 303.278 507.42 306.022 504.774C308.766 502.128 312.392 500.805 316.9 500.805C321.31 500.805 324.887 502.128 327.631 504.774C330.375 507.42 331.747 510.948 331.747 515.358ZM733.792 394.377C733.792 399.795 732.091 404.142 728.689 407.418C725.413 410.568 721.003 412.143 715.459 412.143C710.041 412.143 705.694 410.568 702.418 407.418C699.268 404.142 697.693 399.795 697.693 394.377C697.693 389.085 699.331 384.801 702.607 381.525C706.009 378.249 710.419 376.611 715.837 376.611C721.255 376.611 725.602 378.249 728.878 381.525C732.154 384.801 733.792 389.085 733.792 394.377ZM730.201 507.588C730.201 511.242 731.083 513.888 732.847 515.526C734.737 517.038 737.572 517.794 741.352 517.794C741.352 521.7 739.903 525.102 737.005 528H694.291C691.393 525.102 689.944 521.7 689.944 517.794C693.724 517.794 696.433 517.038 698.071 515.526C699.835 513.888 700.717 511.179 700.717 507.399V452.589C700.717 449.061 699.835 446.541 698.071 445.029C696.433 443.517 693.157 442.761 688.243 442.761V434.445C691.267 432.555 696.37 430.602 703.552 428.586C710.86 426.444 717.034 425.373 722.074 425.373C724.972 425.373 727.051 426.066 728.311 427.452C729.571 428.712 730.201 430.917 730.201 434.067V507.588Z" fill="#A596FF"/>
<path d="M440.916 523.275C439.152 525.543 436.506 527.307 432.978 528.567C429.45 529.827 425.67 530.457 421.638 530.457C417.984 530.457 414.393 529.638 410.865 528C407.337 526.488 404.88 524.346 403.494 521.574C400.974 524.85 397.824 527.118 394.044 528.378C390.39 529.764 385.791 530.457 380.247 530.457C373.191 530.457 366.702 528.693 360.78 525.165C354.858 521.511 350.07 516.156 346.416 509.1C342.888 501.918 341.124 493.161 341.124 482.829C341.124 470.607 343.392 460.212 347.928 451.644C352.59 443.076 358.701 436.65 366.261 432.366C373.821 428.082 382.137 425.94 391.209 425.94C393.351 425.94 397.194 426.192 402.738 426.696L402.171 415.356V405.906C402.171 402.756 401.289 400.425 399.525 398.913C397.761 397.401 394.422 396.645 389.508 396.645V388.896C393.918 386.502 399.651 384.36 406.707 382.47C413.763 380.58 419.307 379.635 423.339 379.635C426.237 379.635 428.316 380.328 429.576 381.714C430.962 382.974 431.655 385.179 431.655 388.329V507.021C431.655 513.195 434.679 516.849 440.727 517.983L440.916 523.275ZM393.288 514.392C397.194 514.392 400.155 513.258 402.171 510.99V444.84C399.525 441.186 395.997 439.359 391.587 439.359C386.043 439.359 381.57 442.257 378.168 448.053C374.892 453.849 373.254 463.236 373.254 476.214C373.254 488.688 375.081 498.201 378.735 504.753C382.515 511.179 387.366 514.392 393.288 514.392ZM760.162 407.04C760.162 403.89 759.217 401.559 757.327 400.047C755.563 398.409 752.224 397.59 747.31 397.59V390.03C751.846 387.51 757.579 385.368 764.509 383.604C771.439 381.84 777.046 380.958 781.33 380.958C784.354 380.958 786.496 381.588 787.756 382.848C789.016 384.108 789.646 386.313 789.646 389.463V507.399C789.646 511.305 790.402 514.014 791.914 515.526C793.552 517.038 796.261 517.794 800.041 517.794C800.041 521.322 798.529 524.724 795.505 528H754.114C751.216 524.85 749.767 521.448 749.767 517.794C753.421 517.794 756.067 517.038 757.705 515.526C759.343 513.888 760.162 511.179 760.162 507.399V407.04Z" fill="#96D9FF"/>
<path d="M493.534 530.457C479.674 530.457 468.586 526.11 460.27 517.416C451.954 508.596 447.796 496.059 447.796 479.805C447.796 468.213 449.749 458.322 453.655 450.132C457.687 441.942 463.294 435.768 470.476 431.61C477.658 427.452 485.974 425.373 495.424 425.373C504.496 425.373 512.434 427.389 519.238 431.421C526.168 435.327 531.523 441.123 535.303 448.809C539.209 456.495 541.162 465.819 541.162 476.781C541.162 488.247 539.146 498.012 535.114 506.076C531.208 514.14 525.664 520.251 518.482 524.409C511.3 528.441 502.984 530.457 493.534 530.457ZM495.046 516.849C499.456 516.849 502.732 514.329 504.874 509.289C507.016 504.249 508.087 494.925 508.087 481.317C508.087 469.851 507.52 461.031 506.386 454.857C505.252 448.683 503.677 444.462 501.661 442.194C499.645 439.926 497.062 438.792 493.912 438.792C489.502 438.792 486.163 441.312 483.895 446.352C481.753 451.392 480.682 460.842 480.682 474.702C480.682 486.042 481.249 494.799 482.383 500.973C483.517 507.021 485.092 511.179 487.108 513.447C489.25 515.715 491.896 516.849 495.046 516.849ZM865.12 508.722C873.058 508.722 880.429 506.202 887.233 501.162C888.241 502.17 889.123 503.682 889.879 505.698C890.635 507.714 891.013 509.478 891.013 510.99C891.013 513.258 889.501 515.904 886.477 518.928C883.453 521.826 879.232 524.346 873.814 526.488C868.522 528.63 862.537 529.701 855.859 529.701C846.535 529.701 838.345 527.685 831.289 523.653C824.359 519.621 819.004 513.762 815.224 506.076C811.444 498.39 809.554 489.318 809.554 478.86C809.554 468.15 811.57 458.763 815.602 450.699C819.76 442.635 825.43 436.461 832.612 432.177C839.794 427.767 847.921 425.562 856.993 425.562C868.459 425.562 877.594 428.901 884.398 435.579C891.202 442.257 894.604 451.518 894.604 463.362C894.604 468.906 893.722 473.316 891.958 476.592C890.194 479.742 887.044 481.317 882.508 481.317H841.684C842.44 499.587 850.252 508.722 865.12 508.722ZM855.859 438.603C851.953 438.603 848.677 440.808 846.031 445.218C843.385 449.502 841.936 456.747 841.684 466.953H860.773C862.789 466.953 864.112 466.26 864.742 464.874C865.372 463.488 865.687 461.346 865.687 458.448C865.687 451.014 864.805 445.848 863.041 442.95C861.277 440.052 858.883 438.603 855.859 438.603Z" fill="#FF9696"/>
<path d="M589.716 444.651V497.949C589.716 501.729 590.472 504.375 591.984 505.887C593.496 507.273 595.638 507.966 598.41 507.966C600.804 507.966 603.324 507.336 605.97 506.076C608.616 504.816 610.695 503.241 612.207 501.351C613.467 502.359 614.349 503.871 614.853 505.887C615.483 507.903 615.798 509.73 615.798 511.368C615.798 514.266 614.79 517.101 612.774 519.873C610.758 522.645 607.734 524.913 603.702 526.677C599.67 528.441 594.819 529.323 589.149 529.323C580.329 529.323 573.21 526.803 567.792 521.763C562.5 516.723 559.854 508.344 559.854 496.626V444.651H547.947V433.122C551.223 432.618 554.373 430.539 557.397 426.885C560.547 423.105 563.193 418.443 565.335 412.899C567.603 407.229 569.052 401.622 569.682 396.078C571.95 395.7 574.029 395.511 575.919 395.511C580.455 395.511 583.794 396.834 585.936 399.48C588.204 402 589.338 404.835 589.338 407.985V427.83H611.262C611.262 431.61 611.073 434.886 610.695 437.658C610.317 440.304 609.498 442.635 608.238 444.651H589.716ZM943.168 529.89C936.994 529.89 930.82 529.008 924.646 527.244C918.598 525.354 913.621 522.708 909.715 519.306C905.809 515.904 903.856 511.872 903.856 507.21C903.856 502.8 905.116 499.272 907.636 496.626C910.156 493.854 913.369 492.468 917.275 492.468C920.803 492.468 923.764 493.602 926.158 495.87C928.678 498.138 929.938 501.099 929.938 504.753C929.938 506.391 929.686 507.84 929.182 509.1C928.804 510.234 928.048 511.494 926.914 512.88C927.922 513.888 929.812 514.707 932.584 515.337C935.356 515.841 938.317 516.093 941.467 516.093C945.751 516.093 949.09 515.337 951.484 513.825C954.004 512.187 955.264 510.108 955.264 507.588C955.264 504.186 953.689 501.288 950.539 498.894C947.389 496.374 942.349 493.287 935.419 489.633C928.363 485.853 923.008 482.766 919.354 480.372C915.7 477.852 912.424 474.513 909.526 470.355C906.754 466.071 905.368 460.842 905.368 454.668C905.368 446.1 908.896 439.17 915.952 433.878C923.008 428.586 932.773 425.94 945.247 425.94C957.469 425.94 966.541 428.145 972.463 432.555C978.511 436.839 981.535 442.005 981.535 448.053C981.535 451.833 980.275 454.92 977.755 457.314C975.361 459.708 972.4 460.905 968.872 460.905C965.596 460.905 962.761 459.96 960.367 458.07C958.099 456.054 956.965 453.471 956.965 450.321C956.965 448.683 957.217 447.045 957.721 445.407C958.225 443.643 958.918 442.194 959.8 441.06C957.28 439.044 953.5 438.036 948.46 438.036C944.428 438.036 941.278 438.981 939.01 440.871C936.742 442.761 935.608 445.155 935.608 448.053C935.608 451.959 937.183 455.172 940.333 457.692C943.483 460.212 948.523 463.236 955.453 466.764C962.005 470.166 967.171 473.127 970.951 475.647C974.731 478.167 978.007 481.506 980.779 485.664C983.551 489.822 984.937 494.925 984.937 500.973C984.937 510.801 980.905 518.109 972.841 522.897C964.903 527.559 955.012 529.89 943.168 529.89Z" fill="#A5FF96"/>
<path d="M669.276 372.642C674.946 372.642 679.86 373.839 684.018 376.233C688.176 378.627 691.326 381.588 693.468 385.116C695.736 388.518 696.87 391.92 696.87 395.322C696.87 399.984 695.61 403.89 693.09 407.04C690.57 410.19 687.294 411.765 683.262 411.765C679.482 411.765 676.143 410.442 673.245 407.796C670.347 405.024 668.898 401.874 668.898 398.346C668.898 393.81 670.788 390.156 674.568 387.384C674.19 386.754 673.497 386.25 672.489 385.872C671.607 385.368 670.788 385.116 670.032 385.116C667.008 385.116 664.299 387.195 661.905 391.353C659.637 395.511 658.503 400.299 658.503 405.717C658.503 409.371 658.818 412.899 659.448 416.301C660.204 419.703 661.023 422.475 661.905 424.617C662.913 426.759 663.858 427.83 664.74 427.83H682.884C682.884 435.894 681.813 441.564 679.671 444.84H663.606V505.698C663.606 508.722 664.047 511.116 664.929 512.88C665.937 514.518 667.701 515.778 670.221 516.66C672.867 517.416 676.773 517.794 681.939 517.794C681.939 521.7 680.49 525.102 677.592 528H627.696C624.798 525.102 623.349 521.7 623.349 517.794C627.129 517.794 629.775 516.975 631.287 515.337C632.925 513.699 633.744 511.053 633.744 507.399V444.84H622.215V433.122C626.373 432.114 630.09 430.413 633.366 428.019C632.358 421.971 631.854 416.553 631.854 411.765C631.854 398.913 635.193 389.211 641.871 382.659C648.549 375.981 657.684 372.642 669.276 372.642Z" fill="#EAFF96"/>
</g>
<defs>
<clipPath id="clip0">
<rect width="1280" height="640" fill="white"/>
</clipPath>
</defs>
</svg>
